<?xml version="1.0" encoding="UTF-8"?>
<svg version="1.1" viewBox="0 0 2048 830" width="1280" height="1280" xmlns="http://www.w3.org/2000/svg">
<path transform="translate(432,227)" d="m0 0h129l2 6 2 10 5 5 3 10v6l-2 3h-15l-65-2h-13l-6 3-4 7-2 16h-1v-33h90l11-1h-102l-1 73h75l11 1 2 7 2 15 1 4-2 1-89-1v34l-1 45h99l2 5v24h-87l-42-1-2-2-1-195v-36zm134 22 1 4z" fill="#1966FB"/>
<path transform="translate(652,281)" d="m0 0h23l13 4 11 7 8 8 10 14 1 2v-18l1-12 23-1 3 1 1 13v166l-27-2-1-1v-34l-8 11-8 10-8 8-8 5-9 3-8 1h-9l-15-2-10-3-10-8-8-8-9-14-6-13-5-21-2-16v-19l3-18 4-15 7-16 7-10 9-10 11-7 11-4zm10 26-10 3-11 8-5 7 1 2 12-9 7-3 3 6 3 2-8 7-7 8-7 15-6 21-1 6-1 16-3-6-3-4-2-4 1 12 3 13 7 14 9 10 5 4 9 4 6 1h13l12-3 10-7 7-8 7-14 4-14 1-7v-27l-3-16-5-12-7-11-7-7-12-6-4-1zm-27 20-1 4 2-4zm-2 4 1 2z" fill="#1B67FB"/>
<path transform="translate(1506,281)" d="m0 0h24l15 4 12 7 12 11 8 11 7 14 4 22 3 26v6l5-4v-16h1l4 24v9l-3 2h-24l-12-2-4-2 1-3 7-3 21-2-32-1-85-1 4 20 5 12 8 11 7 7 10 5 10 2h8l13-3 10-6 7-7 9-15 1-1h25l-1 6-4 11h17l-1 7-8 16-8 10-9 9-10 6-10 4-12 2h-6l-2-9 5-4h-27l-20-4-10-5-12-11-8-10-8-14-6-18-4-22v-20l5-25 6-15 7-12 11-13 11-8 11-5zm11 23-13 2-10 4-10 9-6 10-5 14-2 10v7l19 1h55l18-1-3-23-5-12-7-9-7-6-13-5z" fill="#1966FB"/>
<path transform="translate(937,285)" d="m0 0h18l3 9 4 10 9 29 14 44 12 35 2 7 2-3 6-14 38-114 3-3h25l1 3-5 14-17 49-19 53-6 18 11-30 14-37 2 1v2l4-10 1 4-4 13 2-2 3-4 4-5 2-2-2 9-17 50-15 40-15 41-10 25-7 13-7 8-8 5-4 1h-9l-1-4 3-7-4 1 5-5-4 1-16 2h-12l-10-2-1-1v-21h16l9-2 9-6 6-10 9-23 4-11-1-5-14-41-15-43-27-78v-3zm114 79 1 2zm1 7m-29 59-2 5 1 3 2-5zm-3 8 1 3zm-1 3-1 5 2-2zm-2 5 1 3zm-1 3 1 3zm-1 3 1 2zm-1 3 1 2zm-1 2 1 3zm-1 3 1 2zm-1 3 1 2zm-1 3 1 2zm-1 3m-1 2 1 2z" fill="#1966FB"/>
<path transform="translate(1095,125)" d="m0 0 5 1 11 12 7 8 11 12 2 3-1 4-9 11-11 12-7 8-9 10-9 11-7 7-7 8-12 13-7 8-9 10-11 12-9 10-11 12-9 10-4-1-16-16-7-8-14-15-7-8-15-16-8-8-7-8-4-6 2-6 12-13 7-8 10-12 4 1 24 24 7 8 8 8 5 6h3l9-11 12-14 7-7 7-8 10-11 9-11 9-9 7-8 9-10 9-11z" fill="#5EC120"/>
<path transform="translate(832,281)" d="m0 0h23l12 3 12 6 10 9 6 7 6 11 2 10v8l-2 2h-14l-11-1-4-15-7-9-8-5-8-2h-13l-10 3-8 6-4 8-1 3v13l4 8 8 7 11 4 15 3 14 3 11 4 10 5 10 9 7 10 2 3v30l-4 13-7 10-10 9-10 6-9 3-7 1h-18l-16-3-13-5-17-17-7-12-4-13v-11l1-1h25l2 10 5 10 8 10 7 4 8 2h16l11-4 8-7 3-5 2-13-2-9-6-9-12-6-14-3-14-2-17-5-10-6-8-8-5-8-4-12v-21l4-13 6-9 4-5 10-7 11-5z" fill="#1A66FB"/>
<path transform="translate(1104,226)" d="m0 0h25l1 1 1 14 1 68v23l-1 84-1 20h94l4 2 1 26h-117l-8-1-1-4v-230z" fill="#1966FB"/>
<path transform="translate(1385,214)" d="m0 0h21l9 3 1 1 2 13 7 3 1 2v10h-1l-1-9-6-3-1 3h-22l-10 4-3 4-2 8-1 32h35l2 1 1 14 1 8-1 1h-38v155h-25l-2-3-1-152h-10l-10-1-1-1v-19l1-3h20l1-36 4-14 6-9 8-7 10-4z" fill="#1966FB"/>
<path transform="translate(1266,285)" d="m0 0h25l1 13v166l-2 1-24-2-1-2v-175z" fill="#1764FA"/>
<path transform="translate(1058,348)" d="m0 0 1 4-4 13 2-2 3-4 4-5 2-2-2 9-17 50-15 40-15 41-10 25-7 13-7 8-8 5-4 1h-9l-1-4 3-7-4 1 5-5-4 1-9 1 1-3 9-4 9-6 7-9 10-21 9-24 11-29 14-38 3-2-2 9-6 18 11-30 14-37 2 1v2zm-7 16 1 2zm1 7m-29 59-2 5 1 3 2-5zm-3 8 1 3zm-1 3-1 5 2-2zm-2 5 1 3zm-1 3 1 3zm-1 3 1 2zm-1 3 1 2zm-1 2 1 3zm-1 3 1 2zm-1 3 1 2zm-1 3 1 2zm-1 3m-1 2 1 2z" fill="#1349D7"/>
<path transform="translate(1641,183)" d="m0 0h13l17 4 21 8 23 12 12 8 10 8 13 11 7 7 11 14 9 12 11 18 12 25 8 24 6 26 3 20 1 13v21l-2 24-6 29-7 23-9 20-11 21-11 16-9 11-9 10-14 14-17 13-22 13-18 8-25 7-13 3-5-1-1 2h-6v-3l9-2 15-2 20-6 19-8 18-10 14-10 13-12 10-9 7-8 9-11 11-17 12-23 9-22 7-25 5-30 1-9v-31l-4-30-4-19-9-27-9-20-11-19-10-14-11-13-16-16-8-7-15-11-21-12-20-8-19-6-14-3z" fill="#1C51D9"/>
<path transform="translate(372,192)" d="m0 0h16v1l-26 3-23 6-18 8-17 9-17 12-13 11-15 15-11 14-7 10-9 15-12 25-8 24-5 22-2 16v54l3 20 6 23 6 17 8 18 8 15 12 18 13 15 18 18 13 10 16 10 19 10 25 9 10 2 13 1v2h-17l-15-4-19-7-17-8-18-11-16-13-8-7-10-10-13-17-12-18-9-17-11-27-7-25-4-24-1-10v-32l3-28 8-32 8-21 11-22 9-14 11-15 11-12 18-18 15-11 22-13 19-8 21-6z" fill="#1B51DA"/>
<path transform="translate(563,241)" d="m0 0 6 5 4 12v6l-2 3h-15l-65-2h-13l-6 3-4 7-2 16h-1v-33h90l11-1h-102l-1 58-1 7h-2l-2-9v-60l1-1h103v-10zm3 8 1 4z" fill="#1E50D7"/>
<path transform="translate(1580,423)" d="m0 0 1 2h18l-1 7-8 16-8 10-9 9-10 6-10 4-12 2h-6l-2-9 5-4h-12v-1l13-4 12-5 13-10 9-11z" fill="#1149D7"/>
<path transform="translate(1274,214)" d="m0 0h7l8 5 5 6 3 7-2 9-4 6-6 5-4 1h-7l-6-4-6-7-1-3v-11l4-8 5-4z" fill="#1966FB"/>
<path transform="translate(655,314)" d="m0 0 2 1 3 6 3 2-10 9-6 8-6 13-6 21h-3l-2-1v-2l-4-1-1-3-1 2-1 9h-1v-21l3-15 6-14 5-7h2v3l4-2 10-7zm-20 13-1 4 2-4zm-2 4 1 2z" fill="#134AD8"/>
<path transform="translate(913,409)" d="m0 0 2 3 2 11v13l-4 13-7 11-8 8-8 5-12 4h-13l2-2v-7l6-4 12-6 9-7 6-7 6-10 4-5h2l1-3z" fill="#6C79CB"/>
<path transform="translate(1381,560)" d="m0 0h8l7 3 5 5 3 6 1 5v12l-3 8-6 7-5 2h-13l-6-4-5-7-2-6v-13l4-10 8-7zm-1 7-5 5-2 4v17l4 7 4 2h8l6-5 2-5v-16l-5-8-2-1z" fill="#0A932A"/>
<path transform="translate(1190,560)" d="m0 0 5 2 7 10 13 21 1 1 2-34 5 1v46l-1 1h-5l-7-9-14-23-1 31-1 1h-6l-1-1v-18l1-27z" fill="#09932A"/>
<path transform="translate(1137,560)" d="m0 0h7l8 3 5 6 3 7 1 5v8l-3 10-6 7-5 2h-14l-8-7-4-10v-13l4-10 5-5zm-2 7-5 5-2 7v11l3 8 6 4h8l5-4 2-4 1-6v-10l-3-7-5-4z" fill="#0A932A"/>
<path transform="translate(1309,561)" d="m0 0h21l6 4 3 5v10l-4 6-4 3 3 9 5 8v2h-6l-7-10-3-6-7-2v17l-6 1-1-1zm8 7-1 1v14l1 1h9l5-2 1-2v-8l-4-4z" fill="#07912B"/>
<path transform="translate(574,560)" d="m0 0 10 1 6 4 5 8 1 4v15l-3 8-4 5-6 3h-13l-6-4-4-5-3-8v-13l4-9 6-7zm-2 7-6 5-2 7v12l4 8 4 3h9l6-5 2-6v-14l-3-6-4-4z" fill="#079F25"/>
<path transform="translate(852,560)" d="m0 0h7l8 3 6 9 1 3v19l-4 8-6 5-3 1h-13l-6-4-4-6-3-10v-7l4-12 4-5 5-3zm-1 7-6 5-2 5v16l4 7 4 2h9l5-4 3-8v-12l-4-8-4-3z" fill="#0CA224"/>
<path transform="translate(697,560)" d="m0 0h9l5 3 4 5 1 7-5 1-8-9-7 1-1 2v7l5 3 10 3 5 4 2 4-1 9-3 5-6 3h-12l-6-4-3-7v-6l2-1 3 1 4 8v2l10 1 3-5-1-8-12-3-5-3-3-5v-9l3-5 4-3z" fill="#08922A"/>
<path transform="translate(974,560)" d="m0 0h11l6 4 4 10-1 1h-6l-6-8h-6l-3 5 1 5 8 4 8 3 5 6v8l-3 6-6 4h-13l-7-6-1-3v-7l4-1 5 9 3 2h6l3-2 1-5-3-6-11-3-5-4-3-5v-7l3-6 3-3z" fill="#0A942A"/>
<path transform="translate(790,560)" d="m0 0h8l6 3 4 5v8l-2 1-4-2-4-7-7-1-3 2-1 7 6 4 10 3 5 5 1 2v9l-3 6-5 3h-13l-5-3-4-6v-7l3-2 3 3 3 6 4 3h6l3-3v-7l-4-4-10-2-5-5-3-4 1-9 5-6z" fill="#08932A"/>
<path transform="translate(1072,560)" d="m0 0h10l6 3 5 6 2 4v5l-6-1-6-8-2-1h-9l-5 5-2 8v9l3 8 5 3h8l6-5 3-5h4l-1 8-7 8-3 1h-14l-8-7-4-8-1-9 2-10 6-10z" fill="#099F25"/>
<path transform="translate(904,560)" d="m0 0 4 1 1 29 3 9 4 2h8l3-1 2-6 1-33 5-1 2 1v27l-2 11-4 6-5 3h-13l-6-4-4-7-2-13v-21z" fill="#0AA224"/>
<path transform="translate(1034,395)" d="m0 0 1 3-15 43-4 11-1 4-2 6-1 4h-2l1 3-1 2h-2l1 3-4 10-9 22-8 14-8 13-3 9 4 2h-9l-1-4 3-7-4 1 5-5-4 1-9 1 1-3 9-4 9-6 7-9 10-21 9-24 11-29 14-38z" fill="#1F50D6"/>
<path transform="translate(566,257)" d="m0 0v3l-8 5-9 1h-21l-50-1-6 3-4 7-2 16h-1v-33h90z" fill="#6B78CA"/>
<path transform="translate(623,561)" d="m0 0h7l1 32 3 6 3 2h8l4-4 2-7 1-29h6v32l-4 11-4 3-3 1h-13l-5-3-4-7-2-7z" fill="#0BA125"/>
<path transform="translate(1487,560)" d="m0 0h12l14 1v6l-1 1h-20v14h18l2 1v3h-20v16h20l2 4-2 2h-25l-1-1v-44z" fill="#1AA724"/>
<path transform="translate(1596,362)" d="m0 0h1l4 24v9l-3 2h-24l-12-2-4-2 1-3 7-3 21-2-32-1v-1l36-1 5-4z" fill="#6D79CA"/>
<path transform="translate(1058,348)" d="m0 0 1 4-4 13 2-2 3-4 4-5 2-2-2 9-2 6h-2l-3 10h-2l-6 14-5 12h-2l-1 3-1-3 3-10-6 14h-2l-1 2-1-3 15-41 4-10 2 1v2zm-7 16 1 2z" fill="#707DCC"/>
<path transform="translate(1251,561)" d="m0 0h31l1 5-7 2h-6l-1 39-4 1-2-1-1-6v-33h-7l-4-1-1-4z" fill="#09922B"/>
<path transform="translate(1434,561)" d="m0 0h5l1 41 19 1v4l-7 1h-19l-1-1-1-26v-18z" fill="#09922B"/>
<path transform="translate(372,192)" d="m0 0h16v1l-26 3-23 6-18 8-17 9-17 12-13 11-15 15-9 11-1-2 5-7-3 2 2-4 24-24 15-11 22-13 19-8 21-6z" fill="#2159E1"/>
<path transform="translate(501,561)" d="m0 0h29l1 5-1 1-11 1-1 40-5-1-1-38-11-2-1-5z" fill="#07932A"/>
<path transform="translate(566,563)" d="m0 0v3l-1 4 3 1-2 3-1 5v12l4 8 3 2h10l1 1h8l-4 4-4 2h-13l-6-4-4-5-3-8v-13l4-9z" fill="#0AA124"/>
<path transform="translate(550,348)" d="m0 0 2 1 2 8-2 1-64-1-14-1v-2l8-1 30-1h36z" fill="#144AD7"/>
<path transform="translate(1566,447)" d="m0 0v3l-10 15-6 10-1 3-14 1-2-9 5-4h2l1-3 16-8z" fill="#6E7ACB"/>
<path transform="translate(655,314)" d="m0 0 2 1 3 6 3 2-9 8-12 3-9 3-4 9-1-3 2-7h2l2-5 4-7 4-2 10-7z" fill="#717DCC"/>
<path transform="translate(553,347)" d="m0 0 7 3 1 2v11l-2 4h-27l-15-1-2-2v-3h42l-4-11z" fill="#6C78CA"/>
<path transform="translate(1072,560)" d="m0 0h10l6 3 5 6 2 4v5l-6-1-6-8-2-1h-9l-5 5-2 8-1 6h-1l-2-19 5-5z" fill="#09922B"/>
<path transform="translate(852,560)" d="m0 0h7l8 3 2 9v8l-2-2-4-8-3-2h-9l-5 4-3 9-1-2-3-1-2 12-2-2v-7l4-12 4-5 5-3z" fill="#0A932A"/>
<path transform="translate(781,590)" d="m0 0 3 1 4 8 4 3h6l3-3 1-5 3-3 4-1v9l-3 6-5 3h-13l-5-3-4-6v-7z" fill="#09A025"/>
<path transform="translate(931,560)" d="m0 0 6 1v27l-2 10-6 2-1-3 1-3 1-33z" fill="#09922B"/>
<path transform="translate(1130,276)" d="m0 0h1l1 33v23l-1 43-2 1-1-7v-48l1-32z" fill="#2155DA"/>
<path transform="translate(1588,370)" d="m0 0h2l1 13h-92v-2l80-1 6-2z" fill="#1149D8"/>
<path transform="translate(1218,560)" d="m0 0 5 1v46l-1 1h-5l-3-4 5 1-3-10z" fill="#0E952A"/>
<path transform="translate(1581,425)" d="m0 0h18l-1 4-20 12-7 2 2-4z" fill="#6C78CA"/>
<path transform="translate(574,560)" d="m0 0 10 1 6 4 2 8-1 7-2 1-3-9-4-4h-10l-3 2h-4l1-5 1-3z" fill="#0B952A"/>
<path transform="translate(624,364)" d="m0 0 2 3 1 3 3 1 4 4-1 24-2-3-3-6-3-4-2-3v-14z" fill="#737FCD"/>
<path transform="translate(460,359)" d="m0 0h2l1 17v15l-1 30-2-1-1-5-1-42 1-12z" fill="#184DD7"/>
<path transform="translate(1125,569)" d="m0 0 3 1 1 9v11l3 8 1 2-5-1-2-2-2 2-3-8v-13l3-8z" fill="#06A024"/>
<path transform="translate(904,560)" d="m0 0 4 1v28h-2v-5l-2-1v7h-2l-1-6v-21z" fill="#0D942A"/>
<path transform="translate(652,561)" d="m0 0h6v29l-6 2z" fill="#038F2B"/>
<path transform="translate(1580,423)" d="m0 0 1 3-7 13-2 4-5 5-8 6-9 6-10 5-5 1h-9v-1l13-4 12-5 13-10 9-11z" fill="#1D52DA"/>
<path transform="translate(992,509)" d="m0 0 1 2-8 14-5 8-3 9 4 2h-9l-1-4 3-7-4 1 5-5 12-13z" fill="#6F7CCC"/>
<path transform="translate(566,244)" d="m0 0 4 4 3 10v6l-2 3h-15l-7-1v-1l9-1 8-5v-9l-1-2z" fill="#2151D5"/>
<path transform="translate(1487,560)" d="m0 0h12l14 1v6l-1 1-20-1-5-5z" fill="#0A932A"/>
<path transform="translate(1372,581)" d="m0 0h1l1 12 3 6 4 2 6 1-3 2v3l-5-1-5-3-5-4-2-2 1-13h4z" fill="#0EA324"/>
<path transform="translate(623,561)" d="m0 0h7v28l-2-4-1-9-3 9h-1z" fill="#038F2C"/>
<path transform="translate(513,571)" d="m0 0h1l1 5v9l3-1v24l-5-1z" fill="#0FA225"/>
<path transform="translate(933,597)" d="m0 0 2 2-4 6-5 3h-4v-2h-7l-2-4-1 3-2-7 6 3h8l3-1 1-2 5 1z" fill="#0DA324"/>
<path transform="translate(1585,389)" d="m0 0h10l4 2 1 5h-16l-6-2 4-4z" fill="#1048D7"/>
<path transform="translate(372,192)" d="m0 0h16v1l-26 3-23 6-13 5 2-4 18-6 18-4z" fill="#2763EA"/>
<path transform="translate(570,601)" d="m0 0h12l1 1h8l-4 4-4 2h-13l-2-2h2z" fill="#57BF20"/>
<path transform="translate(1090,591)" d="m0 0h4l-1 8-6 7-1-2h-11l4-2 6-4z" fill="#08922B"/>
<path transform="translate(687,590)" d="m0 0 4 1 4 8v2l9 2 1 4h-6l-2-1-1-3-9-2-1-10z" fill="#13A325"/>
<path transform="translate(1217,580)" d="m0 0h1l1 9 3 1 1 17-1 1h-5l-3-4 5 1-3-10z" fill="#17A723"/>
<path transform="translate(966,591)" d="m0 0 4 1 5 10-4 1 2 4-4-2-3-3-1-3v-7z" fill="#089D26"/>
<path transform="translate(702,581)" d="m0 0 8 2 5 4 2 4-1 9-3 5-4 2 1-4h2l1-3v-11l-11-6z" fill="#15A624"/>
<path transform="translate(1293,230)" d="m0 0h3l1 5-4 10-5 5-4-1 3-4h2l3-11z" fill="#1B50DA"/>
<path transform="translate(1491,603)" d="m0 0h22l1 3-1 1h-13l-8-1z" fill="#048F2B"/>
<path transform="translate(1315,592)" d="m0 0h1v15l-6 1-1-1v-9h4z" fill="#16A325"/>
<path transform="translate(1415,230)" d="m0 0 4 2 5 1 2 3v10h-1l-1-9-6-3-1 3h-8l-1-3 6-3z" fill="#1C50D9"/>
<path transform="translate(904,597)" d="m0 0 6 1 2 6 1-2 2 1v2l7 1v2h-9l-6-4-3-5z" fill="#05922A"/>
<path transform="translate(1657,620)" d="m0 0 2 1-1 2-13 3-5-1-1 2h-6v-3l9-2z" fill="#3A5FD3"/>
<path transform="translate(983,560)" d="m0 0 6 2 3 4v5l-3 1-5-6v-2h-2v-2l-2-1z" fill="#0AA224"/>
<path transform="translate(350,620)" d="m0 0 12 2 13 1v2h-17l-9-2z" fill="#295CDE"/>
<path transform="translate(1218,574)" d="m0 0 4 1v15l-4-1z" fill="#039E25"/>
<path transform="translate(564,595)" d="m0 0 3 1 3 4v6l-5-1-3-3 1-5z" fill="#0C9A28"/>
<path transform="translate(932,508)" d="m0 0 18 1v1l-10 2-6 4-2 1z" fill="#184DD9"/>
<path transform="translate(688,600)" d="m0 0 9 3v3l8 1v1h-10l-6-4z" fill="#04912B"/>
<path transform="translate(790,560)" d="m0 0h8l6 3 3 4-7-1-3-2v-2l-9 1-3 1v-2z" fill="#1AA724"/>
<path transform="translate(325,204)" d="m0 0 2 1-4 4-13 6 2-5z" fill="#2356DA"/>
<path transform="translate(1196,564)" d="m0 0 4 5 5 8-1 3-5-5-3-5z" fill="#0EA424"/>
<path transform="translate(559,361)" d="m0 0h1v5l-1 1h-15l-1-2 16-1z" fill="#144AD7"/>
<path transform="translate(1034,395)" d="m0 0 1 3-5 15-2-2 1-6 4-9z" fill="#1D4FD6"/>
<path transform="translate(1123,575)" d="m0 0h1l-1 19-2-3v-13z" fill="#05902B"/>
<path transform="translate(744,456)" d="m0 0 2 4v5l-7-1-1-2 5-5z" fill="#1C4FD7"/>
<path transform="translate(1580,423)" d="m0 0 1 3-7 13-2-1 2-5z" fill="#104ADA"/>
<path transform="translate(1041,375)" d="m0 0 1 4-5 14-3 1 3-10z" fill="#1F52D9"/>
<path transform="translate(1265,597)" d="m0 0 3 2v9l-5-1z" fill="#0AA224"/>
<path transform="translate(1575,408)" d="m0 0h12l-1 6-3 1-1-4-7-2z" fill="#154BD8"/>
<path transform="translate(1671,616)" d="m0 0 2 1v2l-11 3-4-1 6-3z" fill="#2554D6"/>
<path transform="translate(1149,563)" d="m0 0 4 1 4 5 2 5-2 1-4-6-3-2z" fill="#0AA224"/>
<path transform="translate(561,459)" d="m0 0h2v5h-13l2-2 7-1z" fill="#1048D8"/>
<path transform="translate(901,331)" d="m0 0 2 4-2 2h-14v-1l10-1z" fill="#3760D7"/>
<path transform="translate(696,602)" d="m0 0 8 1 1 4h-6l-2-1z" fill="#06A124"/>
<path transform="translate(852,560)" d="m0 0h7l4 1v2h-10l-3-2z" fill="#1BA823"/>
<path transform="translate(1419,232)" d="m0 0 5 1 2 3v10h-1l-1-9-6-3z" fill="#6876CA"/>
<path transform="translate(782,565)" d="m0 0 2 1-1 7-4 2 1-7z" fill="#0DA224"/>
<path transform="translate(913,426)" d="m0 0 1 2-1 3h-2l-1 3-6 5 2-5 4-5h2z" fill="#CCD7F8"/>
<path transform="translate(987,371)" d="m0 0 2 2 3 9-1 3-4-11z" fill="#4276ED"/>
<path transform="translate(983,359)" d="m0 0 2 2 2 6-1 4-3-9z" fill="#598CF7"/>
<path transform="translate(994,391)" d="m0 0 2 3-1 3z" fill="#6180DE"/>
<path transform="translate(1425,247)" d="m0 0 2 1-4 1z" fill="#6C78CA"/>
<path transform="translate(999,406)" d="m0 0 1 4z" fill="#CCD7F8"/>
<path transform="translate(906,397)" d="m0 0 2 1-1 2z" fill="#9CA7E1"/>
<path transform="translate(998,403)" d="m0 0" fill="#8C97D9"/>
<path transform="translate(993,388)" d="m0 0" fill="#4F71DA"/>
<path transform="translate(992,385)" d="m0 0" fill="#336BEB"/>
<path transform="translate(982,356)" d="m0 0" fill="#336BEB"/>
<path transform="translate(981,353)" d="m0 0" fill="#1765FC"/>
<path transform="translate(980,350)" d="m0 0" fill="#8FB1F9"/>
<path transform="translate(1066,349)" d="m0 0" fill="#6C78CA"/>
<path transform="translate(979,347)" d="m0 0" fill="#8FB1F9"/>
<path transform="translate(977,341)" d="m0 0" fill="#8C97D9"/>
<path transform="translate(1591,340)" d="m0 0" fill="#CCD7F8"/>
<path transform="translate(976,338)" d="m0 0" fill="#8C97D9"/>
<path transform="translate(975,335)" d="m0 0" fill="#ACB7E8"/>
<path transform="translate(968,314)" d="m0 0" fill="#ACB7E8"/>
<path transform="translate(1289,265)" d="m0 0 3 1z" fill="#8C97D9"/>
<path transform="translate(912,407)" d="m0 0" fill="#6C78CA"/>
<path transform="translate(997,400)" d="m0 0" fill="#6C78CA"/>
<path transform="translate(996,397)" d="m0 0" fill="#9CA7E1"/>
<path transform="translate(1595,358)" d="m0 0" fill="#6C78CA"/>
<path transform="translate(1067,347)" d="m0 0" fill="#6C78CA"/>
<path transform="translate(1059,346)" d="m0 0" fill="#9CA7E1"/>
<path transform="translate(978,345)" d="m0 0" fill="#9CA7E1"/>
<path transform="translate(1592,344)" d="m0 0" fill="#CCD7F8"/>
<path transform="translate(1060,343)" d="m0 0" fill="#CCD7F8"/>
<path transform="translate(974,333)" d="m0 0" fill="#CCD7F8"/>
<path transform="translate(973,330)" d="m0 0" fill="#CCD7F8"/>
<path transform="translate(972,327)" d="m0 0" fill="#6C78CA"/>
<path transform="translate(904,322)" d="m0 0" fill="#9CA7E1"/>
<path transform="translate(967,311)" d="m0 0" fill="#9CA7E1"/>
<path transform="translate(966,308)" d="m0 0" fill="#9CA7E1"/>
<path transform="translate(965,306)" d="m0 0" fill="#CCD7F8"/>
<path transform="translate(964,304)" d="m0 0" fill="#CCD7F8"/>
<path transform="translate(969,543)" d="m0 0" fill="#CCD7F8"/>
<path transform="translate(970,542)" d="m0 0" fill="#CCD7F8"/>
<path transform="translate(911,405)" d="m0 0" fill="#6C78CA"/>
<path transform="translate(910,403)" d="m0 0" fill="#6C78CA"/>
<path transform="translate(909,401)" d="m0 0" fill="#6C78CA"/>
<path transform="translate(908,400)" d="m0 0" fill="#CCD7F8"/>
<path transform="translate(1061,341)" d="m0 0" fill="#CCD7F8"/>
<path transform="translate(1590,338)" d="m0 0" fill="#CCD7F8"/>
<path transform="translate(907,328)" d="m0 0" fill="#6C78CA"/>
<path transform="translate(906,326)" d="m0 0" fill="#6C78CA"/>
<path transform="translate(905,324)" d="m0 0" fill="#6C78CA"/>
<path transform="translate(903,321)" d="m0 0" fill="#6C78CA"/>
<path transform="translate(969,318)" d="m0 0" fill="#CCD7F8"/>
<path transform="translate(1294,264)" d="m0 0" fill="#6C78CA"/>
<path transform="translate(1296,263)" d="m0 0" fill="#6C78CA"/>
<path transform="translate(1283,262)" d="m0 0" fill="#CCD7F8"/>
</svg>
